<svg width="172" height="17" viewBox="0 0 172 17" fill="none" xmlns="http://www.w3.org/2000/svg">
<path d="M5.75426 9.94318H8.3679L9.68182 11.6335L10.9744 13.1392L13.4105 16.1932H10.5412L8.86506 14.1335L8.00568 12.9119L5.75426 9.94318ZM13.6307 7.72727C13.6307 9.31345 13.33 10.6629 12.7287 11.7756C12.1321 12.8883 11.3177 13.7382 10.2855 14.3253C9.25805 14.9077 8.10275 15.1989 6.8196 15.1989C5.52699 15.1989 4.36695 14.9053 3.33949 14.3182C2.31203 13.7311 1.5 12.8812 0.903409 11.7685C0.306818 10.6558 0.00852273 9.30871 0.00852273 7.72727C0.00852273 6.1411 0.306818 4.79167 0.903409 3.67898C1.5 2.56629 2.31203 1.71875 3.33949 1.13636C4.36695 0.549242 5.52699 0.255681 6.8196 0.255681C8.10275 0.255681 9.25805 0.549242 10.2855 1.13636C11.3177 1.71875 12.1321 2.56629 12.7287 3.67898C13.33 4.79167 13.6307 6.1411 13.6307 7.72727ZM10.5128 7.72727C10.5128 6.69981 10.3589 5.83333 10.0511 5.12784C9.74811 4.42235 9.3196 3.88731 8.76562 3.52273C8.21165 3.15814 7.56297 2.97585 6.8196 2.97585C6.07623 2.97585 5.42756 3.15814 4.87358 3.52273C4.3196 3.88731 3.88873 4.42235 3.58097 5.12784C3.27794 5.83333 3.12642 6.69981 3.12642 7.72727C3.12642 8.75473 3.27794 9.62121 3.58097 10.3267C3.88873 11.0322 4.3196 11.5672 4.87358 11.9318C5.42756 12.2964 6.07623 12.4787 6.8196 12.4787C7.56297 12.4787 8.21165 12.2964 8.76562 11.9318C9.3196 11.5672 9.74811 11.0322 10.0511 10.3267C10.3589 9.62121 10.5128 8.75473 10.5128 7.72727ZM15.9087 15V0.454545H21.6474C22.7459 0.454545 23.6834 0.651041 24.4599 1.04403C25.2411 1.43229 25.8353 1.9839 26.2425 2.69886C26.6545 3.40909 26.8604 4.24479 26.8604 5.20597C26.8604 6.17187 26.6521 7.00284 26.2354 7.69886C25.8188 8.39015 25.2151 8.92045 24.4244 9.28977C23.6384 9.65909 22.6867 9.84375 21.5692 9.84375H17.7269V7.37216H21.0721C21.6592 7.37216 22.1469 7.29167 22.5352 7.13068C22.9234 6.9697 23.2122 6.72822 23.4016 6.40625C23.5958 6.08428 23.6928 5.68419 23.6928 5.20597C23.6928 4.72301 23.5958 4.31581 23.4016 3.98438C23.2122 3.65294 22.921 3.40199 22.5281 3.23153C22.1398 3.05634 21.6497 2.96875 21.0579 2.96875H18.984V15H15.9087ZM23.7638 8.38068L27.3789 15H23.984L20.4471 8.38068H23.7638Z" fill="#D6001C"/>
<path d="M46.4964 5.54688H43.3857C43.3288 5.14441 43.2128 4.78693 43.0376 4.47443C42.8625 4.1572 42.6375 3.88731 42.3629 3.66477C42.0883 3.44223 41.7711 3.27178 41.4112 3.15341C41.0561 3.03504 40.6702 2.97585 40.2536 2.97585C39.5007 2.97585 38.8449 3.16288 38.2862 3.53693C37.7275 3.90625 37.2943 4.44602 36.9865 5.15625C36.6787 5.86174 36.5249 6.71875 36.5249 7.72727C36.5249 8.7642 36.6787 9.63542 36.9865 10.3409C37.299 11.0464 37.7346 11.5791 38.2933 11.9389C38.852 12.2988 39.4983 12.4787 40.2322 12.4787C40.6442 12.4787 41.0253 12.4242 41.3757 12.3153C41.7308 12.2064 42.0457 12.0478 42.3203 11.8395C42.5949 11.6264 42.8222 11.3684 43.0021 11.0653C43.1868 10.7623 43.3146 10.4167 43.3857 10.0284L46.4964 10.0426C46.416 10.7102 46.2147 11.3542 45.8928 11.9744C45.5755 12.59 45.147 13.1416 44.6072 13.6293C44.0722 14.1122 43.433 14.4957 42.6896 14.7798C41.951 15.0592 41.1153 15.1989 40.1825 15.1989C38.8852 15.1989 37.7251 14.9053 36.7024 14.3182C35.6844 13.7311 34.8795 12.8812 34.2876 11.7685C33.7005 10.6558 33.407 9.30871 33.407 7.72727C33.407 6.1411 33.7053 4.79167 34.3018 3.67898C34.8984 2.56629 35.7081 1.71875 36.7308 1.13636C37.7536 0.549242 38.9041 0.255681 40.1825 0.255681C41.0253 0.255681 41.8066 0.374053 42.5263 0.610795C43.2507 0.847538 43.8923 1.19318 44.451 1.64773C45.0097 2.09754 45.4643 2.64915 45.8146 3.30256C46.1697 3.95597 46.397 4.70407 46.4964 5.54688ZM57.6861 0.454545H60.7614V9.90057C60.7614 10.9612 60.508 11.8892 60.0014 12.6847C59.4995 13.4801 58.7964 14.1004 57.892 14.5455C56.9877 14.9858 55.9342 15.206 54.7315 15.206C53.5241 15.206 52.4683 14.9858 51.5639 14.5455C50.6596 14.1004 49.9564 13.4801 49.4545 12.6847C48.9527 11.8892 48.7017 10.9612 48.7017 9.90057V0.454545H51.777V9.63778C51.777 10.1918 51.8977 10.6842 52.1392 11.1151C52.3854 11.5459 52.7311 11.8845 53.1761 12.1307C53.6212 12.3769 54.1397 12.5 54.7315 12.5C55.3281 12.5 55.8466 12.3769 56.2869 12.1307C56.732 11.8845 57.0753 11.5459 57.3168 11.1151C57.563 10.6842 57.6861 10.1918 57.6861 9.63778V0.454545ZM71.1822 4.63778C71.1254 4.06487 70.8815 3.61979 70.4506 3.30256C70.0198 2.98532 69.435 2.8267 68.6964 2.8267C68.1945 2.8267 67.7707 2.89773 67.4251 3.03977C67.0794 3.17708 66.8143 3.36884 66.6296 3.61506C66.4497 3.86127 66.3597 4.14062 66.3597 4.45312C66.3503 4.71354 66.4047 4.94081 66.5231 5.13494C66.6462 5.32907 66.8143 5.49716 67.0273 5.6392C67.2404 5.77651 67.4866 5.89725 67.766 6.00142C68.0453 6.10085 68.3436 6.18608 68.6609 6.2571L69.9677 6.5696C70.6022 6.71165 71.1845 6.90104 71.7148 7.13778C72.2451 7.37453 72.7044 7.66572 73.0927 8.01136C73.4809 8.35701 73.7816 8.7642 73.9947 9.23295C74.2125 9.7017 74.3237 10.2391 74.3285 10.8452C74.3237 11.7353 74.0965 12.5071 73.6467 13.1605C73.2016 13.8092 72.5576 14.3134 71.7148 14.6733C70.8768 15.0284 69.8659 15.206 68.6822 15.206C67.5079 15.206 66.4852 15.026 65.614 14.6662C64.7475 14.3063 64.0704 13.7737 63.5827 13.0682C63.0998 12.358 62.8465 11.4796 62.8228 10.4332H65.7987C65.8318 10.9209 65.9715 11.3281 66.2177 11.6548C66.4686 11.9768 66.8024 12.2206 67.2191 12.3864C67.6405 12.5473 68.1164 12.6278 68.6467 12.6278C69.1675 12.6278 69.6197 12.5521 70.0032 12.4006C70.3915 12.2491 70.6921 12.0384 70.9052 11.7685C71.1183 11.4986 71.2248 11.1884 71.2248 10.8381C71.2248 10.5114 71.1277 10.2367 70.9336 10.0142C70.7442 9.79167 70.4648 9.60227 70.0955 9.44602C69.7309 9.28977 69.2835 9.14773 68.7532 9.01989L67.1694 8.62216C65.9431 8.32386 64.9748 7.85748 64.2646 7.22301C63.5543 6.58854 63.2016 5.7339 63.2063 4.65909C63.2016 3.77841 63.436 3.009 63.9094 2.35085C64.3877 1.69271 65.0434 1.17898 65.8768 0.809659C66.7101 0.44034 67.6571 0.255681 68.7177 0.255681C69.7972 0.255681 70.7395 0.44034 71.5444 0.809659C72.354 1.17898 72.9838 1.69271 73.4336 2.35085C73.8834 3.009 74.1154 3.77131 74.1296 4.63778H71.1822ZM75.843 2.99006V0.454545H87.7891V2.99006H83.3359V15H80.2962V2.99006H75.843ZM102.459 7.72727C102.459 9.31345 102.158 10.6629 101.557 11.7756C100.96 12.8883 100.146 13.7382 99.1136 14.3253C98.0862 14.9077 96.9309 15.1989 95.6477 15.1989C94.3551 15.1989 93.1951 14.9053 92.1676 14.3182C91.1402 13.7311 90.3281 12.8812 89.7315 11.7685C89.1349 10.6558 88.8366 9.30871 88.8366 7.72727C88.8366 6.1411 89.1349 4.79167 89.7315 3.67898C90.3281 2.56629 91.1402 1.71875 92.1676 1.13636C93.1951 0.549242 94.3551 0.255681 95.6477 0.255681C96.9309 0.255681 98.0862 0.549242 99.1136 1.13636C100.146 1.71875 100.96 2.56629 101.557 3.67898C102.158 4.79167 102.459 6.1411 102.459 7.72727ZM99.3409 7.72727C99.3409 6.69981 99.187 5.83333 98.8793 5.12784C98.5762 4.42235 98.1477 3.88731 97.5938 3.52273C97.0398 3.15814 96.3911 2.97585 95.6477 2.97585C94.9044 2.97585 94.2557 3.15814 93.7017 3.52273C93.1477 3.88731 92.7169 4.42235 92.4091 5.12784C92.1061 5.83333 91.9545 6.69981 91.9545 7.72727C91.9545 8.75473 92.1061 9.62121 92.4091 10.3267C92.7169 11.0322 93.1477 11.5672 93.7017 11.9318C94.2557 12.2964 94.9044 12.4787 95.6477 12.4787C96.3911 12.4787 97.0398 12.2964 97.5938 11.9318C98.1477 11.5672 98.5762 11.0322 98.8793 10.3267C99.187 9.62121 99.3409 8.75473 99.3409 7.72727ZM104.737 0.454545H108.529L112.535 10.2273H112.706L116.711 0.454545H120.504V15H117.521V5.53267H117.4L113.636 14.929H111.605L107.841 5.49716H107.72V15H104.737V0.454545ZM127.667 15V0.454545H130.742V12.4645H136.978V15H127.667ZM142.089 0.454545V15H139.014V0.454545H142.089ZM156.786 0.454545V15H154.13L147.801 5.84517H147.695V15H144.62V0.454545H147.319L153.597 9.60227H153.725V0.454545H156.786ZM159.327 15V0.454545H162.402V6.8679H162.594L167.828 0.454545H171.514L166.116 6.96733L171.578 15H167.899L163.915 9.01989L162.402 10.8665V15H159.327Z" fill="#393E45"/>
</svg>
