<svg width="46" height="27" viewBox="0 0 46 27" fill="none" xmlns="http://www.w3.org/2000/svg">
<g clip-path="url(#clip0_1697_5625)">
<path d="M21.4024 0.336166H4.09184C1.80999 0.336166 -0.0397949 2.18595 -0.0397949 4.4678V21.778C-0.0397949 24.0599 1.80999 25.9097 4.09184 25.9097H21.4021C23.6839 25.9097 25.5337 24.0599 25.5337 21.778V4.4678C25.534 2.18595 23.6843 0.336166 21.4024 0.336166ZM12.1389 21.0239C12.1389 21.9902 11.3555 22.7732 10.3896 22.7732H4.68886C3.72256 22.7732 2.93954 21.9898 2.93954 21.0239V15.3231C2.93954 14.3568 3.7229 13.5738 4.68886 13.5738H10.3896C11.3559 13.5738 12.1389 14.3572 12.1389 15.3231V21.0239ZM12.1389 10.9227C12.1389 11.889 11.3555 12.672 10.3896 12.672H4.68886C3.72256 12.672 2.93954 11.8887 2.93954 10.9227V5.22197C2.93954 4.25567 3.7229 3.47265 4.68886 3.47265H10.3896C11.3559 3.47265 12.1389 4.25601 12.1389 5.22197V10.9227ZM22.555 21.0239C22.555 21.9902 21.7717 22.7732 20.8057 22.7732H15.105C14.1387 22.7732 13.3557 21.9898 13.3557 21.0239V15.3231C13.3557 14.3568 14.139 13.5738 15.105 13.5738H20.8057C21.772 13.5738 22.555 14.3572 22.555 15.3231V21.0239ZM22.555 10.9227C22.555 11.889 21.7717 12.672 20.8057 12.672H15.105C14.1387 12.672 13.3557 11.8887 13.3557 10.9227V5.22197C13.3557 4.25567 14.139 3.47265 15.105 3.47265H20.8057C21.772 3.47265 22.555 4.25601 22.555 5.22197V10.9227Z" fill="white"/>
<path d="M44.8599 15.6546H38.4342C37.6681 15.6546 37.0474 15.0335 37.0474 14.2678V7.84211C37.0474 7.07606 37.6685 6.45528 38.4342 6.45528H44.8599C45.6259 6.45528 46.2467 7.0764 46.2467 7.84211V14.2678C46.2467 15.0335 45.6259 15.6546 44.8599 15.6546Z" fill="white"/>
<path d="M34.4436 15.6546H28.0179C27.2519 15.6546 26.6311 15.0335 26.6311 14.2678V7.84211C26.6311 7.07606 27.2522 6.45528 28.0179 6.45528H34.4436C35.2097 6.45528 35.8305 7.0764 35.8305 7.84211V14.2678C35.8305 15.0335 35.2097 15.6546 34.4436 15.6546Z" fill="white"/>
<path d="M44.8599 25.7558H38.4342C37.6681 25.7558 37.0474 25.1347 37.0474 24.369V17.9433C37.0474 17.1772 37.6685 16.5565 38.4342 16.5565H44.8599C45.6259 16.5565 46.2467 17.1776 46.2467 17.9433V24.369C46.2467 25.135 45.6259 25.7558 44.8599 25.7558Z" fill="white"/>
<path d="M34.4436 25.7558H28.0179C27.2519 25.7558 26.6311 25.1347 26.6311 24.369V17.9433C26.6311 17.1772 27.2522 16.5565 28.0179 16.5565H34.4436C35.2097 16.5565 35.8305 17.1776 35.8305 17.9433V24.369C35.8305 25.135 35.2097 25.7558 34.4436 25.7558Z" fill="white"/>
</g>
<defs>
<clipPath id="clip0_1697_5625">
<rect width="46" height="26.0667" fill="white"/>
</clipPath>
</defs>
</svg>
