<svg width="33" height="34" viewBox="0 0 33 34" fill="none" xmlns="http://www.w3.org/2000/svg">
<g clip-path="url(#clip0_1635_7246)">
<path d="M15.4149 8.2069H3.11377C1.49226 8.2069 0.17778 9.47894 0.17778 11.0481V22.9519C0.17778 24.5211 1.49226 25.7931 3.11377 25.7931H15.4146C17.0361 25.7931 18.3506 24.5211 18.3506 22.9519V11.0481C18.3509 9.47894 17.0364 8.2069 15.4149 8.2069ZM8.83211 22.4333C8.83211 23.0978 8.27545 23.6362 7.58903 23.6362H3.53802C2.85136 23.6362 2.29493 23.0975 2.29493 22.4333V18.513C2.29493 17.8485 2.8516 17.3101 3.53802 17.3101H7.58903C8.27569 17.3101 8.83211 17.8488 8.83211 18.513V22.4333ZM8.83211 15.487C8.83211 16.1515 8.27545 16.6899 7.58903 16.6899H3.53802C2.85136 16.6899 2.29493 16.1512 2.29493 15.487V11.5667C2.29493 10.9022 2.8516 10.3638 3.53802 10.3638H7.58903C8.27569 10.3638 8.83211 10.9025 8.83211 11.5667V15.487ZM16.2339 22.4333C16.2339 23.0978 15.6773 23.6362 14.9909 23.6362H10.9399C10.2532 23.6362 9.69677 23.0975 9.69677 22.4333V18.513C9.69677 17.8485 10.2534 17.3101 10.9399 17.3101H14.9909C15.6775 17.3101 16.2339 17.8488 16.2339 18.513V22.4333ZM16.2339 15.487C16.2339 16.1515 15.6773 16.6899 14.9909 16.6899H10.9399C10.2532 16.6899 9.69677 16.1512 9.69677 15.487V11.5667C9.69677 10.9022 10.2534 10.3638 10.9399 10.3638H14.9909C15.6775 10.3638 16.2339 10.9025 16.2339 11.5667V15.487Z" fill="white"/>
<path d="M31.9126 18.7626H27.3895C26.8503 18.7626 26.4133 18.3098 26.4133 17.7517V13.0682C26.4133 12.5099 26.8506 12.0574 27.3895 12.0574H31.9126C32.4518 12.0574 32.8888 12.5101 32.8888 13.0682V17.7517C32.8888 18.3098 32.4518 18.7626 31.9126 18.7626Z" fill="white"/>
<path d="M24.5808 18.7626H20.0577C19.5185 18.7626 19.0815 18.3098 19.0815 17.7517V13.0682C19.0815 12.5099 19.5187 12.0574 20.0577 12.0574H24.5808C25.12 12.0574 25.557 12.5101 25.557 13.0682V17.7517C25.557 18.3098 25.12 18.7626 24.5808 18.7626Z" fill="white"/>
<path d="M31.9126 26.1248H27.3895C26.8503 26.1248 26.4133 25.6721 26.4133 25.114V20.4304C26.4133 19.8721 26.8506 19.4196 27.3895 19.4196H31.9126C32.4518 19.4196 32.8888 19.8723 32.8888 20.4304V25.114C32.8888 25.6723 32.4518 26.1248 31.9126 26.1248Z" fill="white"/>
<path d="M24.5808 26.1248H20.0577C19.5185 26.1248 19.0815 25.6721 19.0815 25.114V20.4304C19.0815 19.8721 19.5187 19.4196 20.0577 19.4196H24.5808C25.12 19.4196 25.557 19.8723 25.557 20.4304V25.114C25.557 25.6723 25.12 26.1248 24.5808 26.1248Z" fill="white"/>
</g>
<defs>
<clipPath id="clip0_1635_7246">
<rect width="32.7111" height="34" fill="white" transform="translate(0.17778)"/>
</clipPath>
</defs>
</svg>
