<svg width="72" height="72" viewBox="0 0 72 72" fill="none" xmlns="http://www.w3.org/2000/svg">
<g clip-path="url(#clip0_1756_3451)">
<path d="M65.13 72C45.73 72 26.3179 72 6.91797 72C6.91797 48.004 6.91797 24.0081 6.91797 0.0121002C26.3179 0.0121002 45.73 0.0121002 65.13 0.0121002C65.13 24.0081 65.13 48.004 65.13 72ZM36.0542 37.4211C33.1031 37.4211 30.1641 37.3969 27.2129 37.4332C26.0277 37.4453 24.8303 37.5179 23.6571 37.7114C18.8313 38.5097 14.84 40.8198 11.6833 44.557C7.84926 49.0926 6.59141 54.4142 7.12358 60.1955C7.5348 64.598 9.79652 67.9241 13.5943 70.1737C15.7592 71.4557 18.1419 72.0363 20.6576 71.8428C22.1694 71.7218 23.6813 71.4678 25.1931 71.2743C28.2047 70.8873 31.2284 70.6333 34.2642 70.6333C36.9734 70.6333 39.6947 70.6938 42.4039 70.8631C44.6657 71.0082 46.9153 71.2985 49.1528 71.6009C50.8824 71.8428 52.5998 71.9879 54.3415 71.6976C59.3245 70.8873 63.6544 66.8476 64.7308 61.8888C65.2872 59.3368 65.2025 56.7606 64.8155 54.2086C64.1019 49.5401 61.937 45.6214 58.4174 42.4888C54.6075 39.0902 50.1083 37.4332 45.0043 37.4332C42.0169 37.409 39.0416 37.4211 36.0542 37.4211ZM36.0784 0.0725739C26.7171 0.0725739 19.0974 7.63179 19.0732 16.9085C19.049 26.5238 26.7654 33.8895 35.8244 34.0104C45.0406 34.1314 53.0231 26.7657 53.0352 17.0173C53.0473 7.63179 45.4518 0.0725739 36.0784 0.0725739Z" fill="white"/>
<path d="M36.0541 37.4211C39.0415 37.4211 42.0289 37.4211 45.0163 37.4211C50.1203 37.4332 54.6074 39.0781 58.4294 42.4767C61.9489 45.6093 64.1139 49.5401 64.8275 54.1965C65.2266 56.7485 65.2992 59.3247 64.7428 61.8767C63.6664 66.8356 59.3365 70.8752 54.3534 71.6855C52.6118 71.9758 50.8944 71.8186 49.1648 71.5888C46.9273 71.2743 44.6656 70.984 42.4159 70.851C39.7067 70.6817 36.9854 70.6212 34.2762 70.6212C31.2404 70.6333 28.2167 70.8752 25.2051 71.2622C23.6933 71.4557 22.1935 71.7218 20.6696 71.8307C18.1539 72.0242 15.7712 71.4316 13.6063 70.1616C9.79642 67.9241 7.5347 64.5859 7.13557 60.1834C6.6034 54.4022 7.87335 49.0684 11.6953 44.5449C14.852 40.8077 18.8433 38.4976 23.6691 37.6993C24.8423 37.5058 26.0397 37.4332 27.2249 37.4211C30.1519 37.3969 33.103 37.4211 36.0541 37.4211Z" fill="url(#paint0_linear_1756_3451)"/>
<path d="M36.0785 0.0725708C45.4519 0.0725708 53.0474 7.63178 53.0353 17.0173C53.0232 26.7657 45.0407 34.1314 35.8245 34.0104C26.7656 33.8895 19.0491 26.5238 19.0733 16.9085C19.0975 7.63178 26.7172 0.0725708 36.0785 0.0725708Z" fill="url(#paint1_linear_1756_3451)"/>
</g>
<defs>
<linearGradient id="paint0_linear_1756_3451" x1="36.0818" y1="37.4104" x2="36.0818" y2="71.8666" gradientUnits="userSpaceOnUse">
<stop stop-color="#FF3C55"/>
<stop offset="1" stop-color="#D6001C"/>
</linearGradient>
<linearGradient id="paint1_linear_1756_3451" x1="36.0543" y1="0.0725708" x2="36.0543" y2="34.0119" gradientUnits="userSpaceOnUse">
<stop stop-color="#FF3C55"/>
<stop offset="1" stop-color="#D6001C"/>
</linearGradient>
<clipPath id="clip0_1756_3451">
<rect width="72" height="72" fill="white"/>
</clipPath>
</defs>
</svg>
