<svg width="64" height="64" viewBox="0 0 64 64" fill="none" xmlns="http://www.w3.org/2000/svg">
<g clip-path="url(#clip0_1697_7114)">
<path d="M60 48C60 49.0609 59.5786 50.0783 58.8284 50.8284C58.0783 51.5786 57.0609 52 56 52H8C6.93913 52 5.92172 51.5786 5.17157 50.8284C4.42143 50.0783 4 49.0609 4 48V24C4 22.9391 4.42143 21.9217 5.17157 21.1716C5.92172 20.4214 6.93913 20 8 20H12.688C15.869 19.9983 18.9191 18.7336 21.168 16.484L24.488 13.172C25.236 12.4238 26.25 12.0023 27.308 12H36.684C37.7448 12.0002 38.762 12.4218 39.512 13.172L42.824 16.484C43.9385 17.5989 45.2618 18.4832 46.7182 19.0865C48.1746 19.6898 49.7356 20.0002 51.312 20H56C57.0609 20 58.0783 20.4214 58.8284 21.1716C59.5786 21.9217 60 22.9391 60 24V48ZM8 16C5.87827 16 3.84344 16.8429 2.34315 18.3431C0.842855 19.8434 0 21.8783 0 24L0 48C0 50.1217 0.842855 52.1566 2.34315 53.6569C3.84344 55.1571 5.87827 56 8 56H56C58.1217 56 60.1566 55.1571 61.6569 53.6569C63.1571 52.1566 64 50.1217 64 48V24C64 21.8783 63.1571 19.8434 61.6569 18.3431C60.1566 16.8429 58.1217 16 56 16H51.312C49.1904 15.9995 47.1559 15.1564 45.656 13.656L42.344 10.344C40.8441 8.8436 38.8096 8.00045 36.688 8H27.312C25.1904 8.00045 23.1559 8.8436 21.656 10.344L18.344 13.656C16.8441 15.1564 14.8096 15.9995 12.688 16H8Z" fill="white"/>
<path d="M32 44C29.3478 44 26.8043 42.9464 24.9289 41.0711C23.0536 39.1957 22 36.6522 22 34C22 31.3478 23.0536 28.8043 24.9289 26.9289C26.8043 25.0536 29.3478 24 32 24C34.6522 24 37.1957 25.0536 39.0711 26.9289C40.9464 28.8043 42 31.3478 42 34C42 36.6522 40.9464 39.1957 39.0711 41.0711C37.1957 42.9464 34.6522 44 32 44ZM32 48C35.713 48 39.274 46.525 41.8995 43.8995C44.525 41.274 46 37.713 46 34C46 30.287 44.525 26.726 41.8995 24.1005C39.274 21.475 35.713 20 32 20C28.287 20 24.726 21.475 22.1005 24.1005C19.475 26.726 18 30.287 18 34C18 37.713 19.475 41.274 22.1005 43.8995C24.726 46.525 28.287 48 32 48ZM12 26C12 26.5304 11.7893 27.0391 11.4142 27.4142C11.0391 27.7893 10.5304 28 10 28C9.46957 28 8.96086 27.7893 8.58579 27.4142C8.21071 27.0391 8 26.5304 8 26C8 25.4696 8.21071 24.9609 8.58579 24.5858C8.96086 24.2107 9.46957 24 10 24C10.5304 24 11.0391 24.2107 11.4142 24.5858C11.7893 24.9609 12 25.4696 12 26Z" fill="white"/>
</g>
<defs>
<clipPath id="clip0_1697_7114">
<rect width="64" height="64" fill="white"/>
</clipPath>
</defs>
</svg>
