<svg width="33" height="34" viewBox="0 0 33 34" fill="none" xmlns="http://www.w3.org/2000/svg">
<g clip-path="url(#clip0_1801_5227)">
<path d="M26.1269 0.678227V33.2358C26.1269 33.6563 25.5455 34 24.8284 34C24.1112 34 23.5298 33.6589 23.5298 33.2358V0.678227C23.5298 0.257804 24.1112 -0.0859375 24.8284 -0.0859375C25.5455 -0.0859375 26.1269 0.25516 26.1269 0.678227Z" fill="white" stroke="white" stroke-width="0.25" stroke-miterlimit="10"/>
<path d="M17.6352 0.678227V33.2358C17.6352 33.6563 17.0538 34 16.3367 34C15.6195 34 15.0381 33.6589 15.0381 33.2358V0.678227C15.0381 0.257804 15.6195 -0.0859375 16.3367 -0.0859375C17.0538 -0.0859375 17.6352 0.25516 17.6352 0.678227Z" fill="white" stroke="white" stroke-width="0.25" stroke-miterlimit="10"/>
<path d="M9.14352 0.678227V33.2358C9.14352 33.6563 8.56207 34 7.84495 34C7.12783 34 6.54639 33.6589 6.54639 33.2358V0.678227C6.54639 0.257804 7.12783 -0.0859375 7.84495 -0.0859375C8.56207 -0.0859375 9.14352 0.25516 9.14352 0.678227Z" fill="white" stroke="white" stroke-width="0.25" stroke-miterlimit="10"/>
<path d="M28.0426 2.21054V7.16964C28.0426 7.74303 27.563 8.20733 26.9707 8.20733H21.8453C21.253 8.20733 20.7734 7.74303 20.7734 7.16964V2.21054C20.7734 1.63716 21.253 1.17285 21.8453 1.17285H26.9678C27.563 1.17285 28.0426 1.63716 28.0426 2.21054Z" fill="white"/>
<path d="M20.7736 15.107V20.0661C20.7736 20.6395 20.2141 21.1038 19.5231 21.1038H13.5435C12.8525 21.1038 12.293 20.6395 12.293 20.0661V15.107C12.293 14.5336 12.8525 14.0693 13.5435 14.0693H19.5197C20.2141 14.0693 20.7736 14.5336 20.7736 15.107Z" fill="white"/>
<path d="M11.0815 27.0036V32.7892C11.0815 33.4582 10.6819 33.9999 10.1883 33.9999H5.91716C5.42359 33.9999 5.02393 33.4582 5.02393 32.7892V27.0036C5.02393 26.3347 5.42359 25.793 5.91716 25.793H10.1883C10.6819 25.7897 11.0815 26.3347 11.0815 27.0036Z" fill="white"/>
</g>
<defs>
<clipPath id="clip0_1801_5227">
<rect width="32.7111" height="34" fill="white" transform="translate(0.177734)"/>
</clipPath>
</defs>
</svg>
