<svg width="33" height="34" viewBox="0 0 33 34" fill="none" xmlns="http://www.w3.org/2000/svg">
<g clip-path="url(#clip0_1617_495)">
<path d="M15.5551 17.9286V14.5201C15.5551 13.3591 16.5698 12.4146 17.8172 12.4146H25.8788C27.1259 12.4146 28.1409 13.3591 28.1409 14.5201V17.9286H27.3073V14.5201C27.3073 13.787 26.6667 13.1909 25.8792 13.1909H17.8169C17.0294 13.1909 16.3888 13.7874 16.3888 14.5201V17.9286H15.5551ZM14.4401 22.852H29.2601C30.4322 22.852 31.3825 21.9499 31.3825 20.8372V18.4675C31.0853 18.344 30.7574 18.2748 30.4122 18.2748H13.2835C12.9401 18.2748 12.6138 18.3429 12.3177 18.4657V20.8376C12.3177 21.9499 13.268 22.852 14.4401 22.852ZM32.2234 19.0086V20.8376C32.2234 22.3683 30.9115 23.6137 29.2987 23.6137H24.4715C24.6056 23.7668 24.6858 23.9632 24.6858 24.1779V26.6513C24.6858 27.1393 24.269 27.535 23.7548 27.535H20.0181C19.5039 27.535 19.0871 27.1393 19.0871 26.6513V24.1779C19.0871 23.9636 19.1677 23.7668 19.3014 23.6137H14.4791C12.8667 23.6137 11.5544 22.3683 11.5544 20.8376V19.0039C11.1501 19.4146 10.9021 19.9656 10.9021 20.5724V31.1054C10.9021 32.3742 11.9857 33.403 13.3225 33.403H30.4508C31.7876 33.403 32.8712 32.3742 32.8712 31.1054V20.5724C32.8712 19.9678 32.6251 19.4186 32.2234 19.0086ZM23.151 24.7659V25.4976C23.151 25.6789 22.9988 25.8262 22.8114 25.8262H20.9615C20.7741 25.8262 20.6219 25.6789 20.6219 25.4976V24.7659C20.6219 24.5846 20.7741 24.4373 20.9615 24.4373H22.8114C22.9992 24.4373 23.151 24.5846 23.151 24.7659Z" fill="white"/>
<path d="M19.8094 11.9366H21.5138V-0.484375H-0.372314V33.6871H12.6031C11.225 33.6871 10.1077 32.6059 10.1077 31.2723V20.178C10.1077 18.8443 11.225 17.7631 12.6031 17.7631H12.6951V11.5596H19.8094V11.9366ZM8.75272 28.3929H1.63806V21.5079H8.75234V28.3929H8.75272ZM8.75272 18.4442H1.63806V11.5596H8.75234V18.4442H8.75272ZM8.75272 8.49595H1.63806V1.61095H8.75234V8.49595H8.75272ZM12.6951 8.49595V1.61095H19.8094V8.49558H12.6951V8.49595Z" fill="white"/>
</g>
<defs>
<clipPath id="clip0_1617_495">
<rect width="32.7111" height="34" fill="white" transform="translate(0.177734)"/>
</clipPath>
</defs>
</svg>
