<svg width="37" height="46" viewBox="0 0 37 46" fill="none" xmlns="http://www.w3.org/2000/svg">
<g clip-path="url(#clip0_1781_1901)">
<path d="M3.724 14.7853H0.4114C0.09632 14.7853 -0.150635 14.5384 -0.150635 14.2233V13.1333C-0.150635 12.8182 0.09632 12.5713 0.4114 12.5713H3.73252C4.0476 12.5713 4.29455 12.8182 4.29455 13.1333V14.2233C4.29455 14.5384 4.03908 14.7853 3.724 14.7853ZM3.724 20.6612H0.4114C0.09632 20.6612 -0.150635 20.4142 -0.150635 20.0991V19.0091C-0.150635 18.694 0.09632 18.4471 0.4114 18.4471H3.73252C4.0476 18.4471 4.29455 18.694 4.29455 19.0091V20.0991C4.29455 20.4057 4.03908 20.6612 3.724 20.6612ZM3.724 26.5029H0.4114C0.09632 26.5029 -0.150635 26.256 -0.150635 25.9409V24.8509C-0.150635 24.5358 0.09632 24.2888 0.4114 24.2888H3.73252C4.0476 24.2888 4.29455 24.5358 4.29455 24.8509V25.9409C4.29455 26.256 4.03908 26.5029 3.724 26.5029ZM3.724 32.3787H0.4114C0.09632 32.3787 -0.150635 32.1318 -0.150635 31.8167V30.7267C-0.150635 30.4116 0.09632 30.1647 0.4114 30.1647H3.73252C4.0476 30.1647 4.29455 30.4116 4.29455 30.7267V31.8167C4.29455 32.1233 4.03908 32.3787 3.724 32.3787ZM32.9073 13.3717C32.9243 13.3717 32.9498 13.3717 32.9754 13.3717H36.4668V4.43878C36.4668 2.64197 34.934 1.18579 33.0435 1.18579H32.0472C32.5837 1.7904 32.9158 2.59087 32.9158 3.46799V13.3717H32.9073ZM32.9754 22.1429C32.9584 22.1429 32.9328 22.1429 32.9073 22.1429V42.5635C32.9073 43.364 32.5751 44.0878 32.0387 44.6413H33.035C34.9255 44.6413 36.4583 43.3129 36.4583 41.6779V22.1429H32.9754ZM36.569 19.8948V15.5432C36.569 15.2026 36.288 14.9216 35.9474 14.9216H33.6481C33.3075 14.9216 33.0265 15.2026 33.0265 15.5432V19.8948C33.0265 20.2354 33.3075 20.5164 33.6481 20.5164H35.9474C36.288 20.5164 36.569 20.2354 36.569 19.8948ZM31.6299 3.45947V42.3506C31.6299 44.2411 30.0971 45.7739 28.2066 45.7739H5.59745C3.70697 45.7739 2.17415 44.2411 2.17415 42.3506V32.8216H4.1583C4.49893 32.8216 4.77995 32.5405 4.77995 32.1999V30.4542C4.77995 30.1136 4.49893 29.8326 4.1583 29.8326H2.16563V26.9372H4.1583C4.49893 26.9372 4.77995 26.6562 4.77995 26.3156V24.5699C4.77995 24.2292 4.49893 23.9482 4.1583 23.9482H2.16563V21.0529H4.1583C4.49893 21.0529 4.77995 20.7719 4.77995 20.4312V18.6855C4.77995 18.3449 4.49893 18.0639 4.1583 18.0639H2.16563V15.1685H4.1583C4.49893 15.1685 4.77995 14.8875 4.77995 14.5469V12.8012C4.77995 12.4606 4.49893 12.1795 4.1583 12.1795H2.16563V3.45947C2.16563 1.56899 3.69846 0.0361679 5.58894 0.0361679H28.1896C30.0886 0.0276522 31.6299 1.56899 31.6299 3.45947ZM23.012 23.003H16.3953C16.2676 23.003 16.1314 23.0285 16.0207 23.0796V24.0249C16.0207 24.4677 16.3868 24.8253 16.8382 24.8253H22.5607C23.012 24.8253 23.3782 24.4677 23.3782 24.0249V23.0796C23.2675 23.0285 23.1483 23.003 23.012 23.003ZM20.0741 25.4555H19.3588C19.2907 25.4555 19.2311 25.5151 19.2311 25.5832V25.8728C19.2311 25.9409 19.2907 26.0005 19.3588 26.0005H20.0741C20.1422 26.0005 20.2019 25.9409 20.2019 25.8728V25.5832C20.2104 25.5151 20.1508 25.4555 20.0741 25.4555ZM21.2578 20.6612H18.1411C17.6557 20.6612 17.2639 21.0359 17.2639 21.5042V22.8667H17.5875V21.5042C17.5875 21.2062 17.8345 20.9762 18.1411 20.9762H21.2578C21.5644 20.9762 21.8113 21.2147 21.8113 21.5042V22.8667H22.1349V21.5042C22.1349 21.0359 21.7432 20.6612 21.2578 20.6612ZM16.1314 29.1513C15.6034 29.1513 15.1691 28.717 15.1691 28.189V23.7609C15.1691 23.2329 15.6034 22.7986 16.1314 22.7986H16.1654V20.3205H18.916V20.4738H19.5717V15.5092H11.1156V29.1513H16.1314ZM23.9658 23.9142C23.9658 23.6757 23.8721 23.4543 23.7188 23.2925V24.0249C23.7188 24.638 23.2079 25.1319 22.5862 25.1319H20.7213C20.7724 25.1915 20.8065 25.2681 20.8065 25.3618V26.3496C20.8065 26.5455 20.6447 26.6988 20.4488 26.6988H19.0097C18.8138 26.6988 18.652 26.537 18.652 26.3496V25.3618C18.652 25.2767 18.6861 25.2 18.7372 25.1319H16.8722C16.2506 25.1319 15.7396 24.638 15.7396 24.0249V23.2925C15.5864 23.4543 15.4842 23.6757 15.4842 23.9142V28.1209C15.4842 28.6318 15.9014 29.0406 16.4209 29.0406H23.0376C23.557 29.0406 23.9743 28.6318 23.9743 28.1209L23.9658 23.9142ZM14.6411 20.3205H11.8905V23.0711H14.6411V20.3205ZM18.916 16.3437H16.1654V19.0943H18.916V16.3437ZM14.6411 16.3437H11.8905V19.0943H14.6411V16.3437ZM11.8991 24.2888V27.0394H14.6496V24.2888H11.8991Z" fill="white" stroke="white" stroke-width="0.25" stroke-miterlimit="10"/>
</g>
<defs>
<clipPath id="clip0_1781_1901">
<rect width="36.6122" height="46" fill="white"/>
</clipPath>
</defs>
</svg>
