<svg width="42" height="45" viewBox="0 0 42 45" fill="none" xmlns="http://www.w3.org/2000/svg">
<path d="M9.83369 25.9871V22.5149C9.83369 21.3314 10.8488 20.3682 12.0987 20.3682H20.1625C21.4086 20.3682 22.4275 21.3314 22.4275 22.5149V25.9871H21.5942V22.5149C21.5942 21.7682 20.9541 21.1597 20.1663 21.1597H12.0949C11.3071 21.1597 10.667 21.7682 10.667 22.5149V25.9871H9.83369ZM8.71634 31.0011H23.5411C24.7152 31.0011 25.6659 30.0827 25.6659 28.9477V26.5321C25.3705 26.4052 25.041 26.3343 24.6963 26.3343H7.56112C7.21645 26.3343 6.89071 26.4052 6.59528 26.5284V28.944C6.59528 30.0827 7.54597 31.0011 8.71634 31.0011ZM26.5068 27.0847V28.9477C26.5068 30.5083 25.1925 31.7777 23.5789 31.7777H18.7535C18.8861 31.9345 18.9694 32.1324 18.9694 32.3527V34.8728C18.9694 35.3693 18.5528 35.7725 18.0377 35.7725H14.2993C13.7842 35.7725 13.3675 35.3693 13.3675 34.8728V32.3527C13.3675 32.1361 13.4471 31.9345 13.5834 31.7777H8.75801C7.14448 31.7777 5.83018 30.5083 5.83018 28.9477V27.081C5.42491 27.4991 5.17871 28.0629 5.17871 28.6789V39.4127C5.17871 40.7045 6.26197 41.7536 7.599 41.7536H24.7342C26.0712 41.7536 27.1545 40.7045 27.1545 39.4127V28.6789C27.1582 28.0629 26.912 27.5029 26.5068 27.0847ZM17.4316 32.9537V33.7004C17.4316 33.8871 17.2801 34.0365 17.0908 34.0365H15.2386C15.0492 34.0365 14.8977 33.8871 14.8977 33.7004V32.9537C14.8977 32.7671 15.0492 32.6177 15.2386 32.6177H17.0908C17.2801 32.6177 17.4316 32.7671 17.4316 32.9537Z" fill="white"/>
<path d="M21.6627 10.0292C21.6665 6.43762 24.6587 3.50684 28.3289 3.50684C32.0181 3.50684 35.0103 6.44882 34.9951 10.074C34.98 13.8486 31.8476 16.6898 28.2305 16.6412C24.6815 16.589 21.6589 13.7441 21.6627 10.0292ZM37.6578 20.4494C36.4041 19.1016 34.8436 18.2952 33.0029 18.0413C32.5976 17.9853 32.1809 17.9629 31.7719 17.9629C29.4425 17.9554 27.1131 17.9554 24.7837 17.9592C23.0641 17.9629 21.5188 18.4445 20.1704 19.4227H21.0378C22.3256 19.4227 23.3709 20.4531 23.3709 21.7225V25.4485H25.742C27.0298 25.4485 28.0752 26.479 28.0752 27.7484V30.7986C28.4009 30.7986 28.7304 30.8023 29.0599 30.8135C30.1621 30.8471 31.2643 30.9442 32.3627 31.0376C33.0559 31.0973 33.7452 31.2056 34.4384 31.2914C34.4573 31.2952 34.4762 31.3064 34.4952 31.3138C34.5974 31.3138 34.6959 31.3138 34.7982 31.3138C35.0368 31.284 35.2754 31.2578 35.5103 31.2242C37.601 30.8994 39.3698 29.1745 39.6501 27.0987C39.9759 24.601 39.4153 22.3385 37.6578 20.4494Z" fill="white"/>
</svg>
