<svg width="33" height="24" viewBox="0 0 33 24" fill="none" xmlns="http://www.w3.org/2000/svg">
<path d="M14.4889 23.4828C14.4889 23.4828 12.4444 23.4828 12.4444 21.5287C12.4444 19.5747 14.4889 13.7126 22.6667 13.7126C30.8445 13.7126 32.8889 19.5747 32.8889 21.5287C32.8889 23.4828 30.8445 23.4828 30.8445 23.4828H14.4889ZM22.6667 11.7586C24.2933 11.7586 25.8534 11.141 27.0036 10.0417C28.1538 8.94231 28.8 7.45127 28.8 5.89655C28.8 4.34184 28.1538 2.8508 27.0036 1.75145C25.8534 0.652094 24.2933 0.0344849 22.6667 0.0344849C21.04 0.0344849 19.48 0.652094 18.3298 1.75145C17.1795 2.8508 16.5333 4.34184 16.5333 5.89655C16.5333 7.45127 17.1795 8.94231 18.3298 10.0417C19.48 11.141 21.04 11.7586 22.6667 11.7586ZM10.8416 23.4828C10.5385 22.8727 10.3874 22.2039 10.4 21.5287C10.4 18.881 11.7902 16.1552 14.358 14.2598C13.0764 13.8823 11.7411 13.6977 10.4 13.7126C2.22222 13.7126 0.17778 19.5747 0.17778 21.5287C0.17778 23.4828 2.22222 23.4828 2.22222 23.4828H10.8416ZM9.37778 11.7586C10.7333 11.7586 12.0334 11.2439 12.9919 10.3278C13.9504 9.4117 14.4889 8.16916 14.4889 6.87357C14.4889 5.57797 13.9504 4.33543 12.9919 3.41931C12.0334 2.50318 10.7333 1.98851 9.37778 1.98851C8.02223 1.98851 6.7222 2.50318 5.76368 3.41931C4.80516 4.33543 4.26667 5.57797 4.26667 6.87357C4.26667 8.16916 4.80516 9.4117 5.76368 10.3278C6.7222 11.2439 8.02223 11.7586 9.37778 11.7586Z" fill="white"/>
</svg>
